#N canvas -8 -8 1920 1007 12;
#X declare -lib Gem;
#X declare -lib else;
#X obj 24 772 cnv 15 400 200 empty empty Notes 20 12 0 14 -233017 -66577
0;
#X text 32 798 SPIN METRO AND MUSIC;
#X text 53 819 DISSOLVE 1;
#X text 62 839 DISSOLVE 2;
#X text 83 862 3:37AM;
#X text 100 881 WINDOW SLIDER DOWN;
#X text 146 903 SHAPES SLIDER;
#X text 220 920 SHAPES OFF;
#X text 245 942 RESET WHEN APPROPRIATE;
#X obj 21 44 cnv 15 400 650 empty empty visuals 20 12 0 14 -233017
-4160 0;
#X obj 27 271 pix_texture;
#X obj 27 161 pix_image FallingMan.PNG;
#X obj 27 232 pix_lumaoffset;
#X floatatom 77 207 5 0 0 0 - - -;
#X obj 158 207 r reset;
#X msg 125 206 0;
#X obj 27 383 rotateXYZ;
#X floatatom 87 367 5 0 0 0 - - -;
#X obj 87 343 r spin;
#X obj 169 366 r reset;
#X msg 136 365 0;
#X obj 196 445 gemhead 1;
#X obj 195 572 pix_lumaoffset;
#X obj 195 596 pix_texture;
#X floatatom 243 550 5 0 0 0 - - -;
#X obj 362 550 r reset;
#X msg 333 549 0;
#X obj 27 453 disk 1 64;
#X floatatom 291 550 5 0 0 0 - - -;
#X obj 27 313 translateXYZ 0.85 -1.75 0;
#X obj 195 620 square 4;
#X obj 196 469 pix_image ShapesBlack.JPG;
#X obj 242 492 r dissolve1;
#X obj 77 185 r dissolve2;
#X obj 27 122 gemhead 0;
#X msg 205 418 0;
#X msg 244 416 1;
#X obj 293 526 r shapesslide;
#X obj 146 232 r manslide;
#X obj 464 8 cnv 15 550 100 empty empty Util/Config 20 12 0 14 -233017
-260097 0;
#X obj 890 13 declare -lib Gem;
#X obj 472 62 bng 15 250 50 0 empty empty empty 17 7 0 10 -262144 -1
-1;
#X obj 472 82 s reset;
#X obj 472 35 loadbang;
#X text 691 81 to the sounds of Pangur Din by Plinki Plonki;
#X obj 887 42 declare -lib else;
#X obj 497 135 cnv 15 1000 800 empty empty LIVE 20 12 0 14 -233017
-258113 0;
#X obj 730 228 tgl 15 0 empty empty empty 17 7 0 10 -262144 -1 -1 0
1;
#X obj 730 269 float;
#X floatatom 730 294 5 0 0 0 - - -;
#X obj 730 245 metro 100;
#X msg 811 270 0;
#X obj 783 269 - 1;
#X obj 811 250 r reset;
#X obj 522 226 tgl 15 0 empty empty empty 17 7 0 10 -262144 -1 -1 0
1;
#X obj 522 267 float;
#X floatatom 522 293 5 0 0 0 - - -;
#X msg 618 266 0;
#X obj 618 246 r reset;
#X obj 522 316 s spin;
#X obj 575 267 - 0.1;
#X obj 522 243 metro 50;
#X text 555 206 SPIN METRO;
#X obj 730 317 s dissolve1;
#X text 767 212 DISSOLVE1;
#X obj 940 230 tgl 15 0 empty empty empty 17 7 0 10 -262144 -1 -1 0
1;
#X obj 940 271 float;
#X floatatom 940 296 5 0 0 0 - - -;
#X obj 940 247 metro 100;
#X msg 1021 272 0;
#X obj 993 271 - 1;
#X obj 1021 252 r reset;
#X text 977 214 DISSOLVE2;
#X obj 940 319 s dissolve2;
#X obj 844 556 gemhead 2;
#X obj 846 717 pix_texture;
#X obj 845 757 translateXYZ 5.5 0 0;
#X obj 845 782 rectangle 0.4 0.6;
#X obj 844 580 pix_image window.JPG;
#X obj 570 786 gemhead 2;
#X obj 570 834 pix_texture;
#X obj 570 810 pix_image 337.JPG;
#X obj 570 858 translateXYZ -6 -3 0;
#X obj 570 882 rectangle 0.5 0.2;
#X obj 562 569 pix_texture;
#X obj 562 545 pix_image roof.JPG;
#X obj 562 521 gemhead 2;
#X obj 562 623 rectangle 3 1.5;
#X obj 562 593 translateXYZ -5.8 4 -0.01;
#X msg 567 757 1;
#X msg 556 492 1;
#X msg 841 526 1;
#X msg 603 757 0;
#X msg 880 522 0;
#X msg 595 491 0;
#X obj 595 728 r reset;
#X obj 1205 265 vsl 15 128 0 125 0 0 empty empty shapes_slider 0 -9
0 10 -262144 -1 -1 0 1;
#X floatatom 1233 395 5 0 0 0 - - -;
#X obj 1233 418 s shapesslide;
#X msg 1153 265 0;
#X obj 1150 240 r reset;
#X obj 864 656 pix_lumaoffset;
#X floatatom 976 637 5 0 0 0 - - -;
#X msg 909 634 0;
#X obj 1227 746 vsl 15 128 0 200 0 0 empty empty shapes_slider 0 -9
0 10 -262144 -1 -1 12700 1;
#X floatatom 1255 872 5 0 0 0 - - -;
#X obj 1172 717 r reset;
#X obj 978 613 r windowslide;
#X obj 1255 895 s windowslide;
#X msg 1175 742 200;
#X text 603 703 3:37 AM;
#X obj 909 608 r reset;
#X text 1201 205 2min30;
#X text 574 462 ROOF;
#X text 859 490 WINDOW;
#X obj 1379 565 vsl 15 128 0 125 0 0 empty empty man_slider 0 -9 0
10 -262144 -1 -1 0 1;
#X floatatom 1407 695 5 0 0 0 - - -;
#X msg 1327 565 0;
#X obj 1324 540 r reset;
#X obj 1407 718 s manslide;
#X obj 1510 135 cnv 15 350 200 empty empty gemwin 20 12 1 14 -228856
-4160 0;
#X obj 1525 286 gemwin 60;
#X msg 1533 195 border 0;
#X msg 1525 174 border 1;
#X msg 1542 258 0 \, destroy;
#X msg 1538 230 reset \, dimen 1920 1080 \, create \, 1;
#X text 1778 230 open window;
#X text 1617 258 close window;
#X connect 10 0 29 0;
#X connect 11 0 12 0;
#X connect 12 0 10 0;
#X connect 13 0 12 1;
#X connect 14 0 15 0;
#X connect 15 0 13 0;
#X connect 15 0 12 2;
#X connect 16 0 27 0;
#X connect 17 0 16 3;
#X connect 18 0 17 0;
#X connect 19 0 20 0;
#X connect 20 0 17 0;
#X connect 21 0 31 0;
#X connect 22 0 23 0;
#X connect 23 0 30 0;
#X connect 24 0 22 1;
#X connect 25 0 26 0;
#X connect 26 0 24 0;
#X connect 26 0 28 0;
#X connect 28 0 22 2;
#X connect 29 0 16 0;
#X connect 31 0 22 0;
#X connect 32 0 24 0;
#X connect 33 0 13 0;
#X connect 34 0 11 0;
#X connect 35 0 21 0;
#X connect 36 0 21 0;
#X connect 37 0 28 0;
#X connect 38 0 12 2;
#X connect 41 0 42 0;
#X connect 43 0 41 0;
#X connect 47 0 50 0;
#X connect 48 0 52 0;
#X connect 48 0 49 0;
#X connect 49 0 63 0;
#X connect 50 0 48 0;
#X connect 51 0 48 1;
#X connect 52 0 48 1;
#X connect 53 0 51 0;
#X connect 54 0 61 0;
#X connect 55 0 60 0;
#X connect 55 0 56 0;
#X connect 56 0 59 0;
#X connect 57 0 55 1;
#X connect 58 0 57 0;
#X connect 60 0 55 1;
#X connect 61 0 55 0;
#X connect 65 0 68 0;
#X connect 66 0 70 0;
#X connect 66 0 67 0;
#X connect 67 0 73 0;
#X connect 68 0 66 0;
#X connect 69 0 66 1;
#X connect 70 0 66 1;
#X connect 71 0 69 0;
#X connect 74 0 78 0;
#X connect 75 0 76 0;
#X connect 76 0 77 0;
#X connect 78 0 101 0;
#X connect 79 0 81 0;
#X connect 80 0 82 0;
#X connect 81 0 80 0;
#X connect 82 0 83 0;
#X connect 84 0 88 0;
#X connect 85 0 84 0;
#X connect 86 0 85 0;
#X connect 88 0 87 0;
#X connect 89 0 79 0;
#X connect 90 0 86 0;
#X connect 91 0 74 0;
#X connect 92 0 79 0;
#X connect 93 0 74 0;
#X connect 94 0 86 0;
#X connect 95 0 92 0;
#X connect 96 0 97 0;
#X connect 97 0 98 0;
#X connect 99 0 96 0;
#X connect 100 0 99 0;
#X connect 101 0 75 0;
#X connect 102 0 101 2;
#X connect 103 0 101 1;
#X connect 104 0 105 0;
#X connect 105 0 108 0;
#X connect 106 0 109 0;
#X connect 107 0 102 0;
#X connect 109 0 104 0;
#X connect 111 0 103 0;
#X connect 115 0 116 0;
#X connect 116 0 119 0;
#X connect 117 0 115 0;
#X connect 118 0 117 0;
#X connect 122 0 121 0;
#X connect 123 0 121 0;
#X connect 124 0 121 0;
#X connect 125 0 121 0;
